<?xml version="1.0" encoding="UTF-8" standalone="no"?>
<!DOCTYPE svg PUBLIC "-//W3C//DTD SVG 1.1//EN" "http://www.w3.org/Graphics/SVG/1.1/DTD/svg11.dtd">
<svg xmlns="http://www.w3.org/2000/svg" version="1.1" viewBox="0.00 0.00 1080.00 1080.00">
<g stroke-width="2.00" fill="none" stroke-linecap="butt">
<path stroke="#ffe276" vector-effect="non-scaling-stroke" d="
  M 862.03 379.21
  Q 860.90 379.08 860.00 380.45
  Q 859.72 380.88 859.22 380.72
  Q 857.33 380.08 857.48 378.08
  Q 857.53 377.35 856.89 377.69
  L 855.33 378.51
  Q 854.86 378.76 854.99 379.28
  L 855.28 380.38
  Q 855.44 381.03 854.78 380.98
  C 849.51 380.63 841.20 393.77 837.09 397.89
  Q 837.05 397.93 837.10 397.94
  Q 837.24 397.98 837.36 398.00
  Q 837.65 398.06 837.44 398.26
  Q 830.99 404.46 829.33 406.58
  C 825.83 411.02 820.69 414.88 817.54 418.10
  Q 812.19 423.58 806.86 429.09
  A 1.59 1.53 -19.8 0 0 806.43 429.96
  C 805.95 433.49 795.88 441.25 794.13 442.52
  Q 794.06 442.58 794.03 442.67
  Q 794.01 442.71 794.00 442.75
  Q 793.94 442.96 793.80 443.07
  C 787.50 447.83 785.14 453.17 780.49 457.97
  C 779.12 459.38 777.09 459.53 775.52 461.07
  Q 775.16 461.42 774.66 461.44
  Q 772.24 461.56 770.44 463.30"
/>
<path stroke="#ffd65b" vector-effect="non-scaling-stroke" d="
  M 771.11 433.62
  Q 770.11 424.95 764.98 414.47
  Q 760.95 406.23 759.73 394.25
  Q 759.67 393.66 759.08 393.64
  Q 757.86 393.59 757.21 393.06"
/>
<path stroke="#ffc95a" vector-effect="non-scaling-stroke" d="
  M 905.63 449.06
  Q 904.08 450.64 899.74 454.49
  C 891.41 461.88 882.27 471.29 872.35 479.00
  Q 863.89 485.57 858.27 495.29"
/>
<path stroke="#ffe276" vector-effect="non-scaling-stroke" d="
  M 668.76 372.56
  Q 657.61 383.84 647.10 395.35
  C 642.38 400.52 639.17 405.77 635.44 411.25
  A 0.06 0.06 0.0 0 1 635.33 411.24
  Q 635.28 411.10 635.24 410.95
  Q 635.18 410.73 634.97 410.82
  C 631.02 412.49 629.64 415.53 626.51 417.69
  C 617.20 424.11 610.43 433.51 602.13 441.05
  C 600.86 442.21 600.59 443.68 601.29 445.15"
/>
<path stroke="#ffc95a" vector-effect="non-scaling-stroke" d="
  M 709.87 446.27
  Q 703.58 448.76 700.55 453.02
  C 694.42 461.65 687.46 467.83 680.64 475.18
  C 679.90 475.98 678.89 476.38 678.18 477.54
  Q 677.22 479.08 676.77 479.52
  Q 668.73 487.23 661.10 495.35
  C 658.51 498.09 654.34 500.97 651.35 504.26
  C 645.89 510.26 639.11 515.88 634.16 522.12
  C 631.97 524.88 628.88 526.20 626.87 529.07
  Q 624.97 531.79 624.93 531.83
  C 621.02 536.53 615.94 540.07 612.07 544.16
  C 608.56 547.87 604.72 551.24 601.20 554.91
  Q 599.07 557.12 597.00 556.21"
/>
<path stroke="#ffd65b" vector-effect="non-scaling-stroke" d="
  M 63.38 691.30
  Q 60.01 691.13 61.06 684.79"
/>
<path stroke="#ffd65b" vector-effect="non-scaling-stroke" d="
  M 885.17 594.92
  L 882.45 598.92
  Q 881.88 599.77 882.81 599.36
  Q 884.78 598.51 885.97 596.25"
/>
<path stroke="#ffd65b" vector-effect="non-scaling-stroke" d="
  M 934.06 641.21
  Q 934.06 640.73 933.79 640.37
  Q 933.43 639.89 933.06 640.37
  Q 932.80 640.71 932.72 641.19"
/>
<path stroke="#ffd65b" vector-effect="non-scaling-stroke" d="
  M 798.26 647.55
  Q 798.70 646.81 798.45 646.21
  Q 798.30 645.83 798.00 646.12
  L 797.18 646.91"
/>
<path stroke="#ffd65b" vector-effect="non-scaling-stroke" d="
  M 757.20 639.03
  Q 757.39 638.27 757.20 637.71
  Q 757.04 637.21 756.72 637.62
  L 755.68 638.92"
/>
<path stroke="#ffd65b" vector-effect="non-scaling-stroke" d="
  M 335.86 631.08
  Q 336.80 628.52 337.13 627.91
  Q 337.29 627.62 337.20 627.45
  Q 337.10 627.23 336.96 627.43
  L 334.52 630.99"
/>
<path stroke="#ffd65b" vector-effect="non-scaling-stroke" d="
  M 884.47 558.85
  L 888.02 553.95
  A 0.45 0.44 33.2 0 0 887.88 553.30
  Q 887.54 553.09 887.33 553.34
  Q 885.23 555.88 882.78 558.28"
/>
</g>
<path fill="#ffef77" d="
  M 862.03 379.21
  Q 860.90 379.08 860.00 380.45
  Q 859.72 380.88 859.22 380.72
  Q 857.33 380.08 857.48 378.08
  Q 857.53 377.35 856.89 377.69
  L 855.33 378.51
  Q 854.86 378.76 854.99 379.28
  L 855.28 380.38
  Q 855.44 381.03 854.78 380.98
  C 849.51 380.63 841.20 393.77 837.09 397.89
  Q 837.05 397.93 837.10 397.94
  Q 837.24 397.98 837.36 398.00
  Q 837.65 398.06 837.44 398.26
  Q 830.99 404.46 829.33 406.58
  C 825.83 411.02 820.69 414.88 817.54 418.10
  Q 812.19 423.58 806.86 429.09
  A 1.59 1.53 -19.8 0 0 806.43 429.96
  C 805.95 433.49 795.88 441.25 794.13 442.52
  Q 794.06 442.58 794.03 442.67
  Q 794.01 442.71 794.00 442.75
  Q 793.94 442.96 793.80 443.07
  C 787.50 447.83 785.14 453.17 780.49 457.97
  C 779.12 459.38 777.09 459.53 775.52 461.07
  Q 775.16 461.42 774.66 461.44
  Q 772.24 461.56 770.44 463.30
  L 768.29 462.28
  Q 765.71 461.05 766.29 463.86
  Q 767.61 470.24 768.96 476.73
  Q 774.65 504.11 760.72 528.46
  Q 760.24 529.29 759.71 529.52
  A 0.25 0.24 1.3 0 1 759.39 529.19
  C 765.49 516.52 768.79 504.20 767.66 490.13
  C 766.98 481.67 763.59 471.37 761.55 462.01
  C 758.34 447.31 774.56 448.39 771.11 433.62
  Q 770.11 424.95 764.98 414.47
  Q 760.95 406.23 759.73 394.25
  Q 759.67 393.66 759.08 393.64
  Q 757.86 393.59 757.21 393.06
  C 758.67 378.26 759.93 361.92 763.98 348.30
  C 779.07 297.60 823.88 262.77 877.53 264.12
  C 881.49 264.22 885.33 265.04 889.23 265.84
  A 0.65 0.65 0.0 0 1 889.65 266.82
  C 875.19 289.59 873.72 315.22 871.58 341.39
  C 870.51 354.47 868.05 367.49 862.03 379.21
  Z"
/>
<path fill="#ffef77" d="
  M 683.24 342.34
  C 683.08 336.87 691.62 330.32 695.64 328.69
  A 0.26 0.26 0.0 0 1 695.89 329.15
  Q 688.25 334.41 683.71 342.45
  A 0.25 0.25 0.0 0 1 683.24 342.34
  Z"
/>
<path fill="#ffef77" d="
  M 668.76 372.56
  Q 657.61 383.84 647.10 395.35
  C 642.38 400.52 639.17 405.77 635.44 411.25
  A 0.06 0.06 0.0 0 1 635.33 411.24
  Q 635.28 411.10 635.24 410.95
  Q 635.18 410.73 634.97 410.82
  C 631.02 412.49 629.64 415.53 626.51 417.69
  C 617.20 424.11 610.43 433.51 602.13 441.05
  C 600.86 442.21 600.59 443.68 601.29 445.15
  C 586.42 439.03 575.97 430.68 565.54 418.47
  C 548.32 398.28 531.27 374.27 505.30 364.66
  Q 504.06 364.21 505.02 363.30
  C 552.63 318.20 625.68 324.75 668.76 372.56
  Z"
/>
<path fill="#ffef77" d="
  M 717.29 337.03
  C 707.72 331.01 698.41 337.18 690.48 342.45
  A 0.56 0.56 0.0 0 1 689.79 341.58
  Q 700.58 331.35 713.65 333.36
  C 726.38 335.30 726.11 353.06 738.03 354.45
  Q 738.57 354.52 738.26 354.96
  Q 738.11 355.17 737.90 355.30
  Q 737.71 355.42 737.43 355.38
  C 726.12 353.71 725.44 342.16 717.29 337.03
  Z"
/>
<path fill="#ffef77" d="
  M 692.20 359.76
  Q 691.90 359.67 691.81 359.42
  A 0.37 0.37 0.0 0 1 692.27 358.94
  C 698.73 360.93 704.75 362.65 711.68 363.88
  Q 719.74 365.31 727.76 366.94
  Q 731.77 367.76 735.23 370.48
  A 0.36 0.36 0.0 0 1 734.84 371.09
  C 727.13 367.07 718.92 366.58 710.28 365.59
  Q 700.87 364.51 692.65 359.93
  Q 692.55 359.88 692.20 359.76
  Z"
/>
<path fill="#ffef77" d="
  M 688.19 379.06
  C 684.47 377.02 688.29 371.37 687.55 367.87
  Q 686.83 364.44 685.27 361.34
  A 0.35 0.34 -79.7 0 1 685.83 360.95
  Q 690.92 366.50 689.47 374.24
  C 689.03 376.61 691.37 377.83 692.87 379.10
  C 696.19 381.93 697.89 389.13 701.47 390.74
  Q 701.90 390.93 701.83 391.40
  Q 701.68 392.37 700.74 392.27
  C 698.38 392.01 696.87 388.21 695.80 386.35
  C 693.73 382.74 691.71 381.00 688.19 379.06
  Z"
/>
<path fill="#ffef77" d="
  M 711.24 371.50
  Q 711.01 371.47 710.89 371.06
  A 0.45 0.44 -6.0 0 1 711.35 370.50
  Q 717.25 370.92 720.14 376.07
  Q 724.64 384.10 731.31 390.17
  A 0.70 0.67 -68.6 0 1 731.53 390.70
  Q 731.51 391.57 730.81 391.20
  C 721.72 386.42 720.69 376.51 711.70 371.57
  A 0.48 0.01 7.6 0 0 711.24 371.50
  Z"
/>
<path fill="#ffd574" d="
  M 668.76 372.56
  Q 675.09 379.80 680.28 388.23
  C 684.70 395.43 690.64 401.57 695.45 407.80
  C 699.01 412.40 698.87 415.60 698.69 422.23
  C 698.41 432.20 704.50 438.68 709.87 446.27
  Q 703.58 448.76 700.55 453.02
  C 694.42 461.65 687.46 467.83 680.64 475.18
  C 679.90 475.98 678.89 476.38 678.18 477.54
  Q 677.22 479.08 676.77 479.52
  Q 668.73 487.23 661.10 495.35
  C 658.51 498.09 654.34 500.97 651.35 504.26
  C 645.89 510.26 639.11 515.88 634.16 522.12
  C 631.97 524.88 628.88 526.20 626.87 529.07
  Q 624.97 531.79 624.93 531.83
  C 621.02 536.53 615.94 540.07 612.07 544.16
  C 608.56 547.87 604.72 551.24 601.20 554.91
  Q 599.07 557.12 597.00 556.21
  C 592.84 526.21 596.95 494.36 619.14 472.16
  C 625.15 466.15 632.24 460.60 639.06 455.22
  A 0.70 0.69 30.1 0 0 638.73 453.99
  C 625.84 452.10 613.40 449.66 601.29 445.15
  C 600.59 443.68 600.86 442.21 602.13 441.05
  C 610.43 433.51 617.20 424.11 626.51 417.69
  C 629.64 415.53 631.02 412.49 634.97 410.82
  Q 635.18 410.73 635.24 410.95
  Q 635.28 411.10 635.33 411.24
  A 0.06 0.06 0.0 0 0 635.44 411.25
  C 639.17 405.77 642.38 400.52 647.10 395.35
  Q 657.61 383.84 668.76 372.56
  Z"
/>
<path fill="#ffd574" d="
  M 862.03 379.21
  C 854.00 394.25 843.76 405.07 831.89 416.55
  A 1.13 1.13 0.0 0 0 832.66 418.49
  Q 840.34 418.60 847.46 419.15
  C 872.16 421.06 888.98 431.39 905.63 449.06
  Q 904.08 450.64 899.74 454.49
  C 891.41 461.88 882.27 471.29 872.35 479.00
  Q 863.89 485.57 858.27 495.29
  Q 852.93 494.56 850.50 494.02
  C 823.10 488.01 794.50 478.44 770.44 463.30
  Q 772.24 461.56 774.66 461.44
  Q 775.16 461.42 775.52 461.07
  C 777.09 459.53 779.12 459.38 780.49 457.97
  C 785.14 453.17 787.50 447.83 793.80 443.07
  Q 793.94 442.96 794.00 442.75
  Q 794.01 442.71 794.03 442.67
  Q 794.06 442.58 794.13 442.52
  C 795.88 441.25 805.95 433.49 806.43 429.96
  A 1.59 1.53 -19.8 0 1 806.86 429.09
  Q 812.19 423.58 817.54 418.10
  C 820.69 414.88 825.83 411.02 829.33 406.58
  Q 830.99 404.46 837.44 398.26
  Q 837.65 398.06 837.36 398.00
  Q 837.24 397.98 837.10 397.94
  Q 837.05 397.93 837.09 397.89
  C 841.20 393.77 849.51 380.63 854.78 380.98
  Q 855.44 381.03 855.28 380.38
  L 854.99 379.28
  Q 854.86 378.76 855.33 378.51
  L 856.89 377.69
  Q 857.53 377.35 857.48 378.08
  Q 857.33 380.08 859.22 380.72
  Q 859.72 380.88 860.00 380.45
  Q 860.90 379.08 862.03 379.21
  Z"
/>
<path fill="#ffbc3f" d="
  M 757.21 393.06
  Q 757.86 393.59 759.08 393.64
  Q 759.67 393.66 759.73 394.25
  Q 760.95 406.23 764.98 414.47
  Q 770.11 424.95 771.11 433.62
  C 766.41 424.74 759.70 413.39 758.03 405.21
  Q 757.49 402.60 757.21 393.06
  Z"
/>
<path fill="#ffbc3f" d="
  M 709.87 446.27
  Q 713.94 451.85 718.51 460.45
  C 723.43 469.69 719.62 474.28 712.15 480.13
  C 702.98 487.29 694.58 493.90 692.31 505.74
  C 689.37 521.13 695.50 535.55 701.31 549.07
  A 0.32 0.32 0.0 0 1 700.80 549.43
  Q 700.46 549.13 700.17 548.61
  C 691.84 534.23 686.75 518.87 689.14 502.18
  A 0.96 0.96 0.0 0 0 687.57 501.30
  C 679.73 507.86 674.23 520.33 666.28 528.95
  Q 639.65 557.81 599.96 564.90
  A 1.05 1.05 0.0 0 1 598.75 564.10
  L 597.00 556.21
  Q 599.07 557.12 601.20 554.91
  C 604.72 551.24 608.56 547.87 612.07 544.16
  C 615.94 540.07 621.02 536.53 624.93 531.83
  Q 624.97 531.79 626.87 529.07
  C 628.88 526.20 631.97 524.88 634.16 522.12
  C 639.11 515.88 645.89 510.26 651.35 504.26
  C 654.34 500.97 658.51 498.09 661.10 495.35
  Q 668.73 487.23 676.77 479.52
  Q 677.22 479.08 678.18 477.54
  C 678.89 476.38 679.90 475.98 680.64 475.18
  C 687.46 467.83 694.42 461.65 700.55 453.02
  Q 703.58 448.76 709.87 446.27
  Z"
/>
<path fill="#ffbc3f" d="
  M 905.63 449.06
  Q 917.50 462.56 925.73 481.48
  C 927.32 485.14 924.80 485.99 922.04 487.22
  Q 891.41 500.88 858.27 495.29
  Q 863.89 485.57 872.35 479.00
  C 882.27 471.29 891.41 461.88 899.74 454.49
  Q 904.08 450.64 905.63 449.06
  Z"
/>
<path fill="#ffef77" d="
  M 649.91 646.66
  C 644.40 653.61 635.43 663.03 626.38 663.19
  C 613.44 663.42 607.37 654.90 609.88 642.52
  C 612.86 627.79 620.08 613.54 627.12 600.30
  A 1.55 1.55 0.0 0 0 625.81 598.02
  C 623.77 597.95 618.49 597.31 617.32 599.50
  Q 602.82 626.74 586.36 647.85
  C 580.25 655.68 571.18 664.79 560.09 663.08
  C 544.51 660.69 546.98 649.36 547.69 637.62
  A 0.32 0.32 0.0 0 0 547.12 637.41
  C 540.80 645.83 530.69 660.76 519.70 662.95
  C 511.92 664.50 504.95 660.40 502.05 652.75
  C 500.65 649.05 500.17 644.83 499.56 640.69
  Q 499.44 639.85 498.88 640.48
  C 482.70 658.63 462.13 669.68 437.31 665.01
  C 392.78 656.64 409.95 598.77 423.99 573.51
  A 2.27 2.27 0.0 0 0 423.40 570.62
  C 409.97 560.18 409.96 543.97 417.19 529.71
  C 425.08 514.14 441.27 502.21 459.22 501.73
  C 464.72 501.58 464.45 508.57 460.28 508.87
  C 455.60 509.21 450.69 509.46 446.37 511.09
  C 432.84 516.17 421.03 527.50 416.82 541.65
  C 413.69 552.16 416.69 562.07 425.75 568.53
  Q 426.22 568.86 426.52 568.37
  C 447.50 534.42 483.30 498.95 526.71 502.42
  C 549.58 504.24 545.72 524.58 536.33 538.08
  C 517.52 565.12 483.30 582.11 450.31 578.92
  Q 447.28 578.63 445.15 578.78
  Q 444.62 578.82 444.33 579.26
  Q 443.12 581.15 442.09 583.08
  C 432.55 601.10 424.32 621.81 425.88 641.72
  C 427.99 668.76 459.39 663.32 475.14 655.37
  C 483.91 650.94 493.35 642.43 499.42 634.66
  C 501.67 631.77 502.63 626.90 503.69 623.80
  C 510.42 604.12 529.21 584.32 551.53 586.78
  Q 560.37 587.75 565.12 596.33
  A 0.52 0.52 0.0 0 0 566.01 596.37
  L 568.86 592.11
  Q 569.13 591.71 569.57 591.52
  Q 580.15 587.00 588.82 592.11
  C 592.08 594.04 591.06 597.45 589.24 600.23
  C 583.96 608.26 558.04 648.79 561.55 657.73
  C 563.51 662.73 570.81 658.54 573.41 656.26
  Q 582.13 648.59 590.76 636.03
  Q 604.60 615.89 612.63 600.92
  Q 614.77 596.93 616.93 595.41
  C 624.77 589.90 639.27 593.11 646.83 597.18
  C 649.25 598.48 649.89 601.13 648.40 603.58
  C 639.26 618.57 629.76 633.98 624.21 650.73
  Q 623.76 652.11 623.75 657.34
  A 1.46 1.41 -67.5 0 0 624.14 658.33
  C 630.54 665.03 646.72 645.98 649.69 641.18
  C 651.28 638.61 651.12 634.28 651.79 631.61
  Q 656.49 612.95 664.97 592.20
  C 665.86 590.04 666.05 588.62 668.38 587.64
  C 673.32 585.57 686.02 584.90 686.86 592.72
  A 1.63 1.62 56.6 0 1 686.67 593.66
  C 683.69 599.13 649.68 662.69 667.91 659.68
  C 682.55 657.26 698.23 622.84 702.64 610.33
  C 705.21 603.03 707.67 593.57 706.17 585.51
  C 705.38 581.28 707.47 578.31 712.09 579.65
  A 1.14 1.13 84.8 0 1 712.77 580.22
  C 721.37 597.84 697.31 638.52 685.26 651.51
  C 679.31 657.93 671.15 665.07 662.22 662.68
  C 655.04 660.75 651.32 653.78 650.39 646.80
  Q 650.31 646.15 649.91 646.66
  Z
  M 448.17 575.40
  C 477.51 579.47 508.47 565.18 528.06 543.06
  C 534.51 535.78 546.38 516.96 536.19 508.85
  C 530.58 504.38 521.25 505.91 514.67 508.42
  C 485.59 519.48 462.35 547.77 447.33 573.96
  A 0.98 0.97 -51.7 0 0 447.46 575.10
  Q 447.66 575.32 448.17 575.40
  Z
  M 515.54 659.01
  C 520.26 665.16 537.59 644.56 540.08 641.24
  Q 552.97 624.05 562.30 604.63
  C 565.29 598.41 558.85 591.98 553.34 590.66
  A 1.55 1.55 0.0 0 0 552.33 590.75
  C 535.21 598.68 521.58 631.86 516.54 649.23
  C 515.93 651.32 514.16 657.22 515.54 659.01
  Z"
/>
<path fill="#ffef77" d="
  M 63.38 691.30
  Q 60.01 691.13 61.06 684.79
  C 81.92 679.66 94.91 655.10 103.69 637.56
  Q 116.35 612.25 128.30 586.58
  C 141.24 558.76 156.53 530.08 182.07 511.51
  A 0.58 0.58 0.0 0 0 181.75 510.46
  Q 156.09 509.57 130.01 511.27
  C 114.95 512.26 99.52 514.77 87.29 522.84
  Q 68.90 534.97 64.59 558.04
  C 61.24 576.01 71.84 593.08 91.64 591.76
  C 105.65 590.82 114.50 579.81 113.40 565.74
  C 113.13 562.22 110.71 559.31 108.99 556.34
  A 1.92 1.92 0.0 0 1 108.84 554.71
  C 110.22 550.94 113.62 551.99 115.50 554.47
  Q 119.80 560.14 118.99 567.51
  C 116.76 587.79 99.13 599.35 79.59 593.04
  C 69.23 589.69 62.66 580.47 61.48 569.88
  C 58.38 541.95 76.84 516.36 103.85 509.65
  C 125.67 504.23 149.14 503.81 171.49 504.54
  C 181.00 504.85 193.04 505.59 202.91 503.19
  C 206.19 502.39 208.53 503.09 208.20 506.89
  Q 208.15 507.38 207.71 507.57
  Q 197.55 511.93 190.72 519.97
  C 176.56 536.62 166.74 556.05 157.48 576.63
  Q 146.97 599.98 135.65 622.95
  C 121.91 650.81 99.64 690.32 63.38 691.30
  Z"
/>
<path fill="#ffef77" d="
  M 885.17 594.92
  L 882.45 598.92
  Q 881.88 599.77 882.81 599.36
  Q 884.78 598.51 885.97 596.25
  C 895.45 588.02 903.81 582.81 916.28 589.92
  C 923.03 593.77 924.74 601.11 922.52 608.26
  C 918.07 622.63 910.68 635.15 904.90 646.67
  C 903.34 649.77 897.69 661.93 907.31 659.70
  C 917.07 657.44 932.85 637.99 934.59 628.90
  C 938.20 609.99 952.58 589.20 972.65 585.85
  Q 981.86 584.32 990.49 587.69
  C 1010.59 595.54 1002.62 620.23 995.38 634.26
  C 994.97 635.04 994.90 635.88 994.54 636.68
  A 0.70 0.70 0.0 0 0 995.24 637.67
  C 1005.64 636.78 1010.38 631.43 1015.78 623.56
  Q 1017.32 621.32 1019.37 623.08
  Q 1019.73 623.39 1019.53 623.82
  C 1014.39 634.82 1005.77 641.86 993.01 640.09
  A 1.15 1.12 -60.1 0 0 992.13 640.34
  Q 990.26 641.89 989.81 642.56
  C 984.28 650.76 975.32 659.92 965.72 662.42
  C 953.64 665.57 940.68 660.13 936.33 647.88
  Q 935.15 644.57 934.06 641.21
  Q 934.06 640.73 933.79 640.37
  Q 933.43 639.89 933.06 640.37
  Q 932.80 640.71 932.72 641.19
  C 927.48 647.94 916.89 662.05 908.60 662.85
  C 890.27 664.63 882.22 655.46 888.45 637.44
  C 892.87 624.65 899.43 612.66 904.70 600.19
  C 905.84 597.50 907.89 590.41 901.99 591.48
  C 884.05 594.72 865.26 636.29 855.45 654.94
  Q 854.00 657.69 851.24 661.66
  A 1.38 1.34 9.3 0 1 850.48 662.19
  C 843.72 664.01 834.98 663.97 831.91 656.36
  Q 831.68 655.80 831.18 656.14
  C 822.96 661.68 819.52 664.60 808.99 662.50
  C 801.27 660.96 799.52 654.40 798.26 647.55
  Q 798.70 646.81 798.45 646.21
  Q 798.30 645.83 798.00 646.12
  L 797.18 646.91
  C 788.98 656.31 780.40 665.92 766.44 662.55
  C 756.00 660.03 754.83 648.15 757.20 639.03
  Q 757.39 638.27 757.20 637.71
  Q 757.04 637.21 756.72 637.62
  L 755.68 638.92
  Q 746.72 652.33 736.52 659.75
  C 728.48 665.60 717.47 664.15 712.63 655.11
  C 702.91 636.95 717.59 608.63 731.83 596.58
  C 742.83 587.26 764.99 580.08 774.21 595.78
  A 1.15 1.14 -51.8 0 0 776.29 595.53
  C 778.88 587.03 796.63 588.13 800.19 594.71
  A 3.41 3.40 -42.8 0 1 800.05 598.21
  C 796.84 603.08 760.80 658.14 773.41 659.93
  C 781.58 661.08 794.06 645.66 798.43 638.86
  Q 800.79 635.17 803.84 627.78
  Q 808.56 616.33 815.74 603.22
  Q 835.96 566.29 859.04 535.06
  C 866.54 524.90 881.46 508.10 894.19 503.87
  C 902.87 500.99 911.31 503.09 912.89 513.30
  C 913.28 515.82 912.49 518.74 912.34 521.59
  A 0.30 0.30 0.0 0 0 912.87 521.81
  Q 922.86 510.87 934.28 504.82
  C 940.89 501.32 953.77 501.30 955.10 511.41
  C 956.99 525.86 943.24 540.35 933.66 549.91
  Q 912.25 571.27 890.27 588.51
  Q 886.54 591.44 885.17 594.92
  Z
  M 906.33 509.16
  C 890.36 499.78 855.91 568.26 850.44 579.14
  Q 850.24 579.53 850.23 579.97
  Q 850.23 580.57 850.25 580.86
  Q 850.34 581.93 851.17 581.25
  C 867.80 567.59 884.30 553.18 898.34 536.83
  C 902.25 532.28 915.10 514.32 906.33 509.16
  Z
  M 922.18 556.33
  C 933.57 545.41 942.72 536.32 949.46 524.22
  C 951.25 521.02 953.19 511.18 948.63 508.74
  C 932.81 500.24 896.64 570.91 891.86 581.95
  Q 891.46 582.87 892.25 582.25
  Q 907.89 570.03 922.18 556.33
  Z
  M 882.78 558.28
  Q 864.90 574.59 845.93 589.74
  C 844.75 590.68 843.45 592.14 842.78 593.27
  C 833.31 609.48 821.46 631.24 815.04 650.75
  C 814.24 653.18 814.14 655.64 814.28 658.08
  A 2.11 2.11 0.0 0 0 816.58 660.06
  C 823.76 659.37 831.04 651.55 835.12 646.24
  Q 837.89 642.64 843.67 631.33
  Q 862.63 594.29 884.47 558.85
  L 888.02 553.95
  A 0.45 0.44 33.2 0 0 887.88 553.30
  Q 887.54 553.09 887.33 553.34
  Q 885.23 555.88 882.78 558.28
  Z
  M 724.85 658.61
  C 729.43 665.65 746.89 645.01 749.59 641.33
  Q 762.38 623.86 772.05 604.48
  C 774.67 599.24 768.43 590.93 762.88 590.87
  C 757.36 590.81 750.21 599.95 747.18 604.43
  Q 730.89 628.57 724.34 655.18
  Q 723.87 657.11 724.85 658.61
  Z
  M 950.26 647.73
  C 950.08 654.08 954.70 659.03 961.02 659.01
  C 972.18 658.96 981.84 648.60 987.49 639.96
  Q 987.80 639.48 987.30 639.21
  C 982.94 636.82 978.57 634.36 976.29 629.68
  C 971.58 620.03 983.67 610.02 992.44 618.00
  C 993.74 619.19 994.45 621.32 995.78 622.82
  Q 996.21 623.31 996.47 622.71
  C 1000.46 613.30 1002.73 596.60 989.21 594.24
  C 983.86 593.30 976.76 598.35 973.11 601.87
  C 960.88 613.63 950.74 630.40 950.26 647.73
  Z"
/>
<path fill="#ffbc3f" d="
  M 884.47 558.85
  Q 884.20 557.98 882.78 558.28
  Q 885.23 555.88 887.33 553.34
  Q 887.54 553.09 887.88 553.30
  A 0.45 0.44 33.2 0 1 888.02 553.95
  L 884.47 558.85
  Z"
/>
<path fill="#ffef77" d="
  M 335.86 631.08
  Q 336.80 628.52 337.13 627.91
  Q 337.29 627.62 337.20 627.45
  Q 337.10 627.23 336.96 627.43
  L 334.52 630.99
  C 327.18 641.21 320.48 652.04 310.94 659.93
  C 306.58 663.53 300.71 663.75 295.28 662.85
  C 282.39 660.71 283.39 647.40 285.28 637.80
  A 0.76 0.75 -88.6 0 0 284.43 636.90
  L 280.29 637.51
  Q 279.60 637.62 279.59 638.32
  Q 279.33 656.74 262.96 662.93
  C 253.84 666.38 239.69 665.02 235.60 654.38
  C 233.56 649.04 234.54 641.69 237.58 636.83
  C 241.91 629.91 252.06 628.94 259.28 631.30
  A 1.12 1.12 0.0 0 0 260.74 630.11
  C 260.14 625.11 251.48 615.49 248.51 611.34
  Q 247.49 609.92 246.62 611.43
  C 239.68 623.44 229.69 643.80 212.78 640.12
  A 2.82 2.81 -67.8 0 0 209.80 641.38
  Q 204.18 650.42 195.09 657.38
  C 181.54 667.75 161.93 664.48 155.37 647.64
  C 144.36 619.34 178.06 574.00 209.95 587.54
  C 230.64 596.33 220.59 621.75 213.96 635.84
  A 1.22 1.22 0.0 0 0 215.22 637.56
  C 227.50 635.93 231.14 629.18 238.47 618.15
  Q 242.58 611.97 246.19 605.46
  C 248.09 602.05 248.42 597.00 250.82 594.05
  Q 259.95 582.82 274.44 584.64
  C 285.43 586.02 289.29 596.48 283.01 605.65
  A 1.41 1.41 0.0 0 1 280.50 604.46
  Q 281.76 600.16 281.40 595.01
  C 280.95 588.47 273.30 586.03 268.32 589.32
  C 262.16 593.40 262.18 604.90 266.56 610.44
  Q 271.63 616.85 276.14 623.66
  C 279.30 628.43 277.98 637.71 286.75 632.83
  Q 287.17 632.60 287.35 632.16
  Q 295.70 611.94 305.84 592.55
  A 1.66 1.64 0.4 0 1 306.58 591.83
  C 312.62 588.83 324.70 588.49 328.03 595.18
  A 3.00 2.99 48.9 0 1 327.83 598.18
  Q 315.90 615.85 305.66 635.61
  Q 300.74 645.10 298.32 655.50
  C 296.97 661.35 303.68 660.52 306.67 658.66
  Q 311.92 655.40 315.57 651.07
  C 330.11 633.81 341.49 613.04 353.03 593.05
  C 357.92 584.58 377.19 591.36 372.40 601.34
  Q 362.37 622.28 353.19 643.60
  C 352.99 644.09 352.95 645.04 352.98 645.45
  Q 353.11 646.82 354.21 645.99
  C 363.12 639.23 371.66 633.02 378.27 623.97
  C 378.94 623.05 380.16 622.05 381.19 622.42
  A 1.51 1.50 27.4 0 1 381.91 624.69
  C 373.89 636.36 361.68 645.16 349.75 652.49
  A 4.79 4.77 -3.3 0 0 347.91 654.54
  C 335.19 681.61 322.00 708.05 304.71 731.19
  C 295.84 743.06 274.77 763.80 257.70 760.29
  C 248.67 758.44 244.58 751.18 244.23 742.33
  C 243.23 717.25 268.67 698.04 287.31 686.06
  Q 298.32 678.99 319.81 666.94
  C 322.19 665.60 322.47 664.42 323.49 662.03
  Q 331.54 643.12 335.86 631.08
  Z
  M 169.31 645.46
  C 168.21 656.08 176.42 660.58 185.90 658.16
  C 193.76 656.15 201.85 647.29 206.06 640.65
  A 0.95 0.95 0.0 0 0 205.82 639.38
  C 203.09 637.41 199.67 635.43 197.78 633.13
  C 186.40 619.28 208.92 606.27 214.26 622.04
  A 0.67 0.67 0.0 0 0 215.50 622.12
  C 219.41 614.21 222.43 596.63 209.38 594.43
  C 204.37 593.58 197.70 596.84 193.93 600.20
  C 181.93 610.91 171.05 628.88 169.31 645.46
  Z
  M 262.15 635.14
  C 256.37 633.19 248.77 632.16 243.74 635.95
  C 238.30 640.06 236.13 649.04 239.77 655.05
  C 243.27 660.83 251.20 661.58 256.44 657.84
  C 262.54 653.50 264.89 643.93 263.58 636.78
  A 2.15 2.14 4.0 0 0 262.15 635.14
  Z
  M 256.21 754.76
  C 264.78 759.17 276.98 747.93 282.33 741.31
  C 297.87 722.03 309.74 696.43 318.73 673.47
  Q 319.35 671.88 317.69 672.28
  Q 315.66 672.76 313.09 674.26
  C 289.92 687.80 245.63 710.81 248.67 743.30
  Q 249.42 751.25 256.21 754.76
  Z"
/>
<path fill="#ffbc3f" d="
  M 885.17 594.92
  Q 885.35 596.37 885.97 596.25
  Q 884.78 598.51 882.81 599.36
  Q 881.88 599.77 882.45 598.92
  L 885.17 594.92
  Z"
/>
<path fill="#ffbc3f" d="
  M 61.06 684.79
  Q 60.01 691.13 63.38 691.30
  Q 53.31 691.47 50.20 690.54
  C 34.65 685.89 28.20 672.19 29.89 656.88
  C 32.81 630.54 57.07 611.68 83.19 614.00
  Q 83.67 614.04 84.02 614.38
  C 86.36 616.61 85.00 619.83 81.88 620.17
  C 77.69 620.63 73.24 620.23 69.42 621.01
  C 48.67 625.26 30.26 642.64 33.85 665.45
  C 35.93 678.73 47.67 688.24 61.06 684.79
  Z"
/>
<path fill="#ffbc3f" d="
  M 335.86 631.08
  L 334.52 630.99
  L 336.96 627.43
  Q 337.10 627.23 337.20 627.45
  Q 337.29 627.62 337.13 627.91
  Q 336.80 628.52 335.86 631.08
  Z"
/>
<path fill="#ffbc3f" d="
  M 757.20 639.03
  L 755.68 638.92
  L 756.72 637.62
  Q 757.04 637.21 757.20 637.71
  Q 757.39 638.27 757.20 639.03
  Z"
/>
<path fill="#ffbc3f" d="
  M 934.06 641.21
  L 932.72 641.19
  Q 932.80 640.71 933.06 640.37
  Q 933.43 639.89 933.79 640.37
  Q 934.06 640.73 934.06 641.21
  Z"
/>
<path fill="#ffbc3f" d="
  M 798.26 647.55
  Q 798.19 646.97 797.18 646.91
  L 798.00 646.12
  Q 798.30 645.83 798.45 646.21
  Q 798.70 646.81 798.26 647.55
  Z"
/>
<path fill="#ffef77" d="
  M 260.17 800.21
  C 249.62 808.76 239.98 797.87 242.72 787.18
  C 244.74 779.29 250.88 776.60 258.54 779.60
  Q 260.11 780.22 260.17 778.53
  L 260.51 768.61
  Q 260.54 767.93 261.19 767.74
  L 262.69 767.31
  A 1.73 1.73 0.0 0 1 264.90 768.98
  L 264.69 801.29
  A 0.72 0.71 82.2 0 1 264.19 801.96
  L 262.04 802.61
  Q 261.30 802.84 261.17 802.07
  L 260.89 800.47
  A 0.44 0.44 0.0 0 0 260.17 800.21
  Z
  M 260.3680 788.0013
  A 6.27 6.27 0.0 0 0 254.1640 781.6659
  L 253.1241 781.6550
  A 6.27 6.27 0.0 0 0 246.7888 787.8590
  L 246.7320 793.2787
  A 6.27 6.27 0.0 0 0 252.9360 799.6141
  L 253.9759 799.6250
  A 6.27 6.27 0.0 0 0 260.3112 793.4210
  L 260.3680 788.0013
  Z"
/>
<path fill="#ffef77" d="
  M 394.73 776.77
  A 0.07 0.07 0.0 0 1 394.63 776.78
  L 394.62 776.77
  A 4.24 3.55 -51.1 0 1 394.52 771.24
  L 395.85 769.59
  A 4.24 3.55 -51.1 0 1 401.27 768.52
  L 401.29 768.53
  A 0.07 0.07 0.0 0 1 401.30 768.63
  L 394.73 776.77
  Z"
/>
<path fill="#ffbc3f" d="
  M 95.45 801.87
  C 68.85 810.67 60.51 773.53 85.89 768.81
  C 89.26 768.18 92.36 768.51 95.34 769.91
  A 1.51 1.51 0.0 0 1 94.26 772.72
  C 70.80 765.60 68.44 800.52 88.81 800.07
  C 90.53 800.03 93.14 799.16 95.11 799.27
  A 1.33 1.33 0.0 0 1 95.45 801.87
  Z"
/>
<path fill="#ffef77" d="
  M 781.07 802.04
  C 764.93 807.54 752.60 794.13 758.67 778.44
  C 761.94 769.99 771.93 767.08 780.01 769.34
  C 781.58 769.78 782.51 770.89 781.87 772.47
  Q 781.66 772.99 781.13 772.83
  C 774.40 770.80 767.08 771.72 763.25 778.28
  C 760.37 783.21 760.83 790.94 764.37 795.41
  C 768.59 800.75 774.39 800.29 780.63 799.20
  A 1.15 1.14 75.4 0 1 781.91 799.96
  Q 782.46 801.56 781.07 802.04
  Z"
/>
<ellipse fill="#ffef77" cx="0.00" cy="0.00" transform="translate(949.37,771.73) rotate(98.5)" rx="2.91" ry="2.55"/>
<path fill="#ffef77" d="
  M 320.81 787.49
  L 320.72 798.84
  A 0.63 0.63 0.0 0 0 321.35 799.47
  L 335.14 799.55
  A 0.63 0.63 0.0 0 1 335.76 800.24
  L 335.60 801.87
  A 0.63 0.63 0.0 0 1 334.96 802.43
  L 317.11 802.27
  A 0.63 0.63 0.0 0 1 316.49 801.64
  L 316.47 769.37
  A 0.63 0.63 0.0 0 1 317.10 768.74
  L 333.74 768.85
  A 0.63 0.63 0.0 0 1 334.37 769.45
  L 334.48 772.26
  A 0.63 0.63 0.0 0 1 333.84 772.92
  L 321.71 772.69
  A 0.63 0.63 0.0 0 0 321.07 773.30
  L 320.71 782.60
  A 0.63 0.63 0.0 0 0 321.33 783.25
  L 333.12 783.25
  A 0.63 0.63 0.0 0 1 333.75 783.88
  L 333.75 786.43
  A 0.63 0.63 0.0 0 1 333.11 787.06
  L 321.45 786.86
  A 0.63 0.63 0.0 0 0 320.81 787.49
  Z"
/>
<path fill="#ffef77" d="
  M 549.50 772.41
  A 0.45 0.42 -10.8 0 1 549.12 772.17
  Q 548.37 770.63 548.98 769.81
  Q 549.40 769.23 550.71 769.19
  Q 561.51 768.84 572.30 769.39
  Q 572.92 769.43 572.94 770.05
  L 573.00 772.08
  Q 573.03 772.75 572.35 772.75
  L 565.01 772.75
  A 1.98 1.98 0.0 0 0 563.03 774.73
  L 562.99 801.64
  A 0.56 0.56 0.0 0 1 562.44 802.20
  L 559.21 802.27
  Q 558.64 802.29 558.63 801.71
  L 558.44 774.23
  Q 558.43 772.78 556.98 772.72
  L 549.50 772.41
  Z"
/>
<circle fill="#ffef77" cx="434.79" cy="771.84" r="2.76"/>
<rect fill="#ffef77" x="-2.46" y="-2.61" transform="translate(683.42,771.89) rotate(-0.8)" width="4.92" height="5.22" rx="1.59"/>
<path fill="#ffef77" d="
  M 168.21 778.82
  L 172.71 778.52
  A 0.86 0.85 86.4 0 1 173.62 779.33
  L 173.73 781.52
  A 0.68 0.68 0.0 0 1 173.00 782.24
  L 168.56 781.93
  A 0.70 0.70 0.0 0 0 167.81 782.56
  Q 167.03 790.58 167.97 798.60
  Q 168.04 799.13 168.56 799.22
  L 172.44 799.90
  A 1.28 1.28 0.0 0 1 173.47 801.46
  Q 173.13 802.91 171.50 803.16
  C 160.15 804.93 163.38 789.78 163.05 783.39
  A 0.93 0.93 0.0 0 0 162.45 782.58
  L 159.58 781.48
  A 0.78 0.77 -67.7 0 1 159.15 780.45
  Q 159.93 778.61 162.05 778.68
  A 1.31 1.31 0.0 0 0 163.34 776.97
  C 162.55 774.44 163.88 770.90 167.16 771.94
  Q 167.59 772.08 167.59 772.53
  L 167.55 778.20
  Q 167.55 778.87 168.21 778.82
  Z"
/>
<path fill="#ffef77" d="
  M 371.85 782.73
  L 371.82 798.19
  A 1.04 1.03 -84.6 0 0 372.66 799.21
  L 376.85 799.99
  Q 377.20 800.06 377.34 800.38
  Q 378.26 802.53 376.35 803.06
  C 365.51 806.04 367.66 792.65 367.31 787.11
  Q 367.18 785.21 367.27 783.29
  Q 367.29 782.72 366.75 782.54
  L 364.17 781.68
  A 1.44 1.44 0.0 0 1 364.35 778.90
  L 367.28 778.35
  A 0.53 0.52 81.2 0 0 367.70 777.77
  L 367.20 773.64
  A 0.81 0.80 79.1 0 1 367.78 772.77
  L 370.72 771.95
  A 0.89 0.89 0.0 0 1 371.84 772.82
  L 371.80 778.02
  A 0.73 0.73 0.0 0 0 372.53 778.75
  L 376.93 778.75
  A 0.70 0.70 0.0 0 1 377.63 779.40
  L 377.79 781.33
  Q 377.84 782.00 377.17 782.00
  L 372.58 782.00
  A 0.73 0.73 0.0 0 0 371.85 782.73
  Z"
/>
<path fill="#ffef77" d="
  M 413.29 781.75
  L 411.30 781.75
  Q 410.33 781.75 410.47 780.79
  L 410.65 779.58
  Q 410.75 778.94 411.39 778.89
  L 413.75 778.70
  Q 414.33 778.65 414.31 778.07
  L 414.17 773.18
  Q 414.15 772.57 414.74 772.43
  L 417.67 771.76
  A 0.68 0.68 0.0 0 1 418.50 772.42
  L 418.50 777.52
  A 1.30 1.29 83.2 0 0 420.10 778.78
  Q 422.36 778.23 424.45 778.95
  A 1.54 1.54 0.0 0 1 424.06 781.94
  L 419.51 782.30
  A 1.07 1.06 -2.1 0 0 418.53 783.35
  Q 418.43 789.27 418.57 795.02
  Q 418.71 800.53 423.81 799.72
  A 0.64 0.63 -2.2 0 1 424.54 800.39
  L 424.38 802.33
  Q 424.34 802.86 423.82 802.98
  C 410.92 805.84 414.57 789.18 414.01 782.42
  A 0.72 0.72 0.0 0 0 413.29 781.75
  Z"
/>
<path fill="#ffef77" d="
  M 905.43 781.43
  Q 908.18 778.48 912.24 777.96
  A 0.85 0.85 0.0 0 1 913.20 778.72
  L 913.48 781.53
  A 0.70 0.70 0.0 0 1 912.81 782.30
  C 903.07 782.62 905.75 795.54 905.75 801.81
  A 0.43 0.42 3.1 0 1 905.28 802.23
  L 901.96 801.92
  Q 901.53 801.88 901.52 801.45
  L 901.41 780.20
  A 1.71 1.71 0.0 0 1 904.56 779.26
  Q 905.12 780.12 905.00 781.23
  Q 904.91 781.99 905.43 781.43
  Z"
/>
<path fill="#ffef77" d="
  M 932.49 787.00
  Q 932.53 784.39 930.98 782.32
  A 1.52 1.50 75.7 0 0 930.05 781.76
  Q 925.89 781.03 922.02 782.75
  A 1.06 1.06 0.0 0 1 920.54 781.93
  C 919.85 776.97 936.40 774.84 936.94 785.82
  Q 937.33 793.67 937.26 801.52
  Q 937.26 802.07 936.73 802.19
  Q 934.41 802.73 932.78 801.22
  A 0.66 0.65 48.8 0 0 931.96 801.16
  C 926.69 804.86 918.04 803.64 918.39 795.68
  C 918.70 788.62 926.14 787.93 931.96 787.56
  Q 932.48 787.52 932.49 787.00
  Z
  M 923.54 794.50
  C 920.63 802.25 934.98 802.60 932.89 791.07
  Q 932.81 790.61 932.34 790.60
  C 929.33 790.53 924.73 791.31 923.54 794.50
  Z"
/>
<path fill="#ffef77" d="
  M 968.01 792.57
  C 953.85 786.26 963.14 774.37 974.24 779.19
  Q 974.81 779.44 974.73 780.05
  L 974.53 781.75
  A 0.72 0.70 13.1 0 1 973.58 782.33
  C 970.41 781.16 963.15 781.59 965.98 787.16
  A 1.11 1.07 -7.5 0 0 966.76 787.74
  C 982.85 790.71 975.55 807.75 961.64 802.45
  Q 959.82 801.76 960.34 799.91
  A 1.30 1.30 0.0 0 1 962.19 799.10
  Q 966.08 801.11 970.12 799.21
  Q 970.55 799.01 970.76 798.58
  C 972.14 795.74 970.76 793.80 968.01 792.57
  Z"
/>
<path fill="#ffef77" d="
  M 106.44 801.06
  C 98.42 796.05 101.94 778.48 112.99 778.20
  C 120.62 778.01 124.50 784.10 123.02 791.33
  Q 122.94 791.70 122.57 791.70
  L 107.76 791.71
  A 1.03 1.02 89.7 0 0 106.74 792.75
  C 106.82 800.15 114.16 800.77 120.25 799.43
  A 0.83 0.83 0.0 0 1 121.10 799.75
  C 121.95 800.88 121.43 801.99 120.15 802.44
  Q 112.79 805.03 106.44 801.06
  Z
  M 107.75 788.80
  L 117.69 788.64
  A 1.14 1.14 0.0 0 0 118.81 787.48
  L 118.80 787.26
  A 5.88 5.64 89.1 0 0 113.07 781.47
  L 112.13 781.49
  A 5.88 5.64 89.1 0 0 106.59 787.46
  L 106.59 787.68
  A 1.14 1.14 0.0 0 0 107.75 788.80
  Z"
/>
<path fill="#ffef77" d="
  M 135.81 781.25
  C 142.59 776.03 151.73 777.18 152.33 787.21
  Q 152.68 793.11 152.43 801.61
  Q 152.41 802.31 151.71 802.28
  L 148.43 802.13
  Q 147.81 802.10 147.80 801.48
  Q 147.68 794.27 147.42 787.06
  C 147.24 782.19 140.66 780.03 137.61 783.94
  C 135.18 787.04 136.24 797.61 136.26 801.69
  Q 136.27 802.31 135.65 802.29
  L 132.29 802.15
  Q 131.46 802.12 131.47 801.30
  L 131.74 779.44
  Q 131.75 778.62 132.57 778.70
  L 134.47 778.87
  A 0.86 0.86 0.0 0 1 135.25 779.73
  L 135.25 780.98
  Q 135.25 781.68 135.81 781.25
  Z"
/>
<path fill="#ffef77" d="
  M 186.27 781.02
  Q 188.69 778.22 192.45 778.20
  A 0.72 0.72 0.0 0 1 193.17 778.91
  L 193.23 781.66
  Q 193.24 782.31 192.59 782.32
  C 183.99 782.41 185.71 793.99 185.93 801.26
  A 0.64 0.64 0.0 0 1 185.35 801.92
  L 182.55 802.21
  Q 181.82 802.29 181.81 801.55
  L 181.52 779.92
  A 1.62 1.62 0.0 0 1 184.70 779.46
  Q 184.93 780.26 185.34 780.94
  A 0.57 0.57 0.0 0 0 186.27 781.02
  Z"
/>
<path fill="#ffef77" d="
  M 209.4447 803.3663
  A 12.70 11.92 93.5 0 1 198.3222 789.9623
  A 12.70 11.92 93.5 0 1 210.9953 778.0137
  A 12.70 11.92 93.5 0 1 222.1178 791.4177
  A 12.70 11.92 93.5 0 1 209.4447 803.3663
  Z
  M 210.1744 800.0898
  A 9.39 7.34 90.4 0 0 217.5798 790.7512
  A 9.39 7.34 90.4 0 0 210.3056 781.3102
  A 9.39 7.34 90.4 0 0 202.9002 790.6488
  A 9.39 7.34 90.4 0 0 210.1744 800.0898
  Z"
/>
<path fill="#ffef77" d="
  M 292.20 801.98
  C 278.76 807.90 267.61 794.51 275.57 782.76
  C 279.30 777.26 288.00 776.44 292.18 781.81
  Q 295.06 785.51 294.04 791.12
  Q 293.96 791.55 293.52 791.55
  L 278.48 791.68
  A 0.73 0.72 1.7 0 0 277.76 792.35
  C 277.12 800.17 285.96 800.86 291.22 799.30
  A 1.43 1.43 0.0 0 1 292.20 801.98
  Z
  M 279.45 788.71
  L 288.59 788.81
  A 1.49 1.49 0.0 0 0 290.10 787.33
  L 290.10 787.13
  A 5.59 5.21 -89.4 0 0 284.95 781.49
  L 283.25 781.47
  A 5.59 5.21 -89.4 0 0 277.98 787.01
  L 277.98 787.21
  A 1.49 1.49 0.0 0 0 279.45 788.71
  Z"
/>
<path fill="#ffef77" d="
  M 344.92 789.67
  A 2.77 0.23 62.8 0 1 343.69 787.70
  C 338.44 777.91 356.46 775.31 356.98 781.25
  A 1.13 1.12 -81.0 0 1 355.42 782.39
  Q 352.25 781.04 348.89 781.73
  Q 348.39 781.83 348.07 782.23
  C 342.08 789.59 360.31 787.47 357.54 797.75
  C 355.87 803.97 347.65 804.34 342.74 802.00
  A 1.44 1.44 0.0 0 1 343.28 799.26
  C 346.71 799.06 349.11 801.46 352.69 798.60
  A 1.27 1.22 77.1 0 0 353.13 797.87
  C 354.15 792.57 348.19 791.95 344.92 789.67
  Z"
/>
<path fill="#ffef77" d="
  M 403.22 801.73
  C 392.72 806.65 381.98 800.72 384.03 788.20
  C 386.50 773.02 407.35 775.97 404.70 790.39
  Q 404.45 791.73 403.08 791.71
  L 389.38 791.53
  A 1.15 1.15 0.0 0 0 388.22 792.64
  C 387.94 800.41 396.71 800.80 402.00 799.32
  A 0.74 0.73 -23.4 0 1 402.84 799.65
  L 403.51 800.78
  Q 403.89 801.42 403.22 801.73
  Z
  M 389.61 788.69
  L 399.21 788.73
  A 1.32 1.32 0.0 0 0 400.53 787.41
  L 400.53 787.27
  A 5.76 5.39 -89.8 0 0 395.16 781.49
  L 393.70 781.49
  A 5.76 5.39 -89.8 0 0 388.29 787.23
  L 388.29 787.37
  A 1.32 1.32 0.0 0 0 389.61 788.69
  Z"
/>
<path fill="#ffef77" d="
  M 485.22 786.57
  C 484.56 779.96 478.08 780.62 473.82 782.71
  A 0.69 0.68 65.7 0 1 472.89 782.35
  C 470.89 777.56 485.12 776.23 488.17 782.27
  C 490.27 786.44 489.29 796.61 489.23 801.59
  Q 489.22 802.11 488.72 802.21
  Q 486.79 802.61 485.33 801.40
  A 0.80 0.80 0.0 0 0 484.50 801.29
  C 482.23 802.31 480.00 803.67 477.56 803.44
  C 473.43 803.05 470.24 800.06 470.57 795.73
  C 471.09 788.87 479.12 787.78 484.57 787.35
  Q 485.29 787.29 485.22 786.57
  Z
  M 475.49 793.56
  C 470.81 800.59 486.73 804.44 484.93 791.36
  Q 484.86 790.87 484.37 790.81
  C 481.33 790.46 477.28 790.87 475.49 793.56
  Z"
/>
<path fill="#ffef77" d="
  M 579.05 792.45
  C 578.31 801.10 587.64 799.68 592.78 799.49
  A 1.30 1.30 0.0 0 1 593.35 801.98
  C 572.09 811.33 567.41 777.52 586.55 778.22
  C 593.74 778.48 595.77 784.85 595.66 791.16
  Q 595.65 791.68 595.13 791.67
  C 590.19 791.59 584.29 790.89 579.53 791.90
  Q 579.08 791.99 579.05 792.45
  Z
  M 580.72 788.79
  L 590.14 788.65
  A 1.41 1.41 0.0 0 0 591.53 787.22
  L 591.53 786.93
  A 5.52 5.43 89.2 0 0 586.02 781.49
  L 584.64 781.51
  A 5.52 5.43 89.2 0 0 579.29 787.11
  L 579.29 787.40
  A 1.41 1.41 0.0 0 0 580.72 788.79
  Z"
/>
<path fill="#ffef77" d="
  M 608.21 781.97
  C 610.51 780.09 611.77 777.28 615.46 778.60
  A 1.82 1.82 0.0 0 1 614.89 782.14
  C 606.33 782.31 608.49 796.03 608.50 801.40
  Q 608.51 802.06 607.85 802.09
  L 604.74 802.25
  A 0.76 0.75 88.6 0 1 603.94 801.48
  L 604.15 779.49
  A 0.89 0.88 -1.8 0 1 604.97 778.62
  Q 608.31 778.40 607.71 781.68
  Q 607.56 782.50 608.21 781.97
  Z"
/>
<path fill="#ffef77" d="
  M 624.64 782.45
  A 1.24 1.24 0.0 0 1 623.16 780.65
  C 625.02 777.45 633.41 777.95 636.16 779.44
  C 641.87 782.52 639.95 795.91 640.15 801.64
  Q 640.16 802.04 639.78 802.14
  Q 637.15 802.87 635.38 801.14
  Q 634.97 800.74 634.51 801.08
  C 621.82 810.33 612.26 787.48 635.01 787.50
  A 0.50 0.50 0.0 0 0 635.51 786.96
  Q 635.30 784.19 633.50 782.10
  A 1.56 1.52 -16.3 0 0 632.50 781.57
  Q 628.48 781.13 624.64 782.45
  Z
  M 635.03 790.79
  C 622.50 789.71 624.55 803.01 631.47 799.93
  Q 636.86 797.54 635.57 791.28
  Q 635.48 790.83 635.03 790.79
  Z"
/>
<path fill="#ffef77" d="
  M 654.73 801.64
  Q 653.51 806.84 653.97 812.17
  Q 654.02 812.80 653.40 812.77
  L 650.92 812.69
  Q 650.24 812.66 650.24 811.99
  L 650.05 779.10
  Q 650.05 778.43 650.71 778.47
  L 652.75 778.57
  Q 653.34 778.60 653.46 779.18
  L 653.88 781.31
  Q 654.03 782.10 654.64 781.57
  C 660.28 776.72 668.83 776.86 671.79 784.34
  C 676.15 795.36 667.86 808.29 655.38 801.36
  Q 654.87 801.07 654.73 801.64
  Z
  M 660.9866 800.0954
  A 9.34 7.29 91.8 0 0 668.5664 790.9890
  A 9.34 7.29 91.8 0 0 661.5734 781.4246
  A 9.34 7.29 91.8 0 0 653.9936 790.5310
  A 9.34 7.29 91.8 0 0 660.9866 800.0954
  Z"
/>
<path fill="#ffef77" d="
  M 708.23 786.58
  C 707.99 779.85 700.91 780.71 696.82 782.88
  A 0.53 0.53 0.0 0 1 696.04 782.41
  L 696.04 780.39
  Q 696.04 779.86 696.54 779.66
  C 700.93 777.91 709.04 776.95 711.64 782.12
  C 713.55 785.90 712.41 796.01 712.85 800.83
  A 1.78 1.77 -72.7 0 1 709.95 802.36
  C 707.33 800.17 703.66 803.79 700.26 803.27
  Q 692.98 802.15 694.35 793.81
  C 695.08 789.37 703.66 787.63 707.12 787.70
  A 1.08 1.08 0.0 0 0 708.23 786.58
  Z
  M 700.19 799.56
  C 706.00 801.67 709.27 796.98 708.41 791.46
  Q 708.32 790.91 707.77 790.84
  Q 704.47 790.38 701.40 791.60
  C 698.45 792.77 696.97 798.40 700.19 799.56
  Z"
/>
<path fill="#ffef77" d="
  M 730.49 792.99
  C 727.28 791.94 722.34 789.95 721.97 785.98
  C 721.33 779.07 728.11 777.29 733.53 778.59
  C 735.18 778.99 735.97 780.14 735.36 781.76
  A 0.64 0.63 17.8 0 1 734.60 782.14
  Q 730.51 781.01 728.25 781.75
  C 725.47 782.67 725.37 786.20 727.86 787.64
  C 732.09 790.10 738.83 791.65 736.37 798.11
  C 734.13 803.99 726.96 804.50 721.91 801.84
  Q 721.30 801.52 721.46 800.85
  L 721.84 799.23
  A 0.64 0.64 0.0 0 1 722.76 798.81
  Q 725.41 800.23 728.18 800.09
  C 732.04 799.90 733.65 796.75 731.25 793.53
  A 1.60 1.55 79.5 0 0 730.49 792.99
  Z"
/>
<path fill="#ffef77" d="
  M 798.5390 803.3283
  A 12.71 11.89 97.6 0 1 788.4344 789.1575
  A 12.71 11.89 97.6 0 1 801.9010 778.1317
  A 12.71 11.89 97.6 0 1 812.0056 792.3025
  A 12.71 11.89 97.6 0 1 798.5390 803.3283
  Z
  M 799.9205 800.0959
  A 9.42 7.35 91.7 0 0 807.5468 790.8980
  A 9.42 7.35 91.7 0 0 800.4795 781.2641
  A 9.42 7.35 91.7 0 0 792.8532 790.4620
  A 9.42 7.35 91.7 0 0 799.9205 800.0959
  Z"
/>
<path fill="#ffef77" d="
  M 824.99 781.16
  Q 827.49 778.15 831.52 778.21
  Q 832.13 778.22 832.21 778.83
  L 832.59 781.67
  Q 832.68 782.39 831.96 782.34
  C 822.65 781.79 824.49 794.05 824.98 801.49
  Q 825.03 802.16 824.36 802.20
  L 821.33 802.37
  Q 820.50 802.42 820.49 801.59
  L 820.28 779.55
  Q 820.28 778.81 821.01 778.80
  L 823.08 778.78
  Q 823.75 778.77 823.91 779.41
  L 824.30 781.01
  Q 824.49 781.77 824.99 781.16
  Z"
/>
<path fill="#ffef77" d="
  M 844.56 781.18
  C 860.84 770.39 868.11 792.38 858.63 800.35
  Q 852.10 805.83 845.96 801.43
  Q 844.23 800.20 844.12 802.32
  L 843.64 812.29
  A 0.49 0.49 0.0 0 1 843.15 812.75
  L 840.68 812.75
  Q 840.05 812.75 840.04 812.12
  L 839.79 779.16
  Q 839.79 778.74 840.21 778.75
  L 842.70 778.80
  A 0.75 0.74 83.4 0 1 843.41 779.37
  L 843.80 780.88
  Q 843.97 781.57 844.56 781.18
  Z
  M 850.7322 800.2231
  A 9.32 7.24 92.2 0 0 858.3247 791.1879
  A 9.32 7.24 92.2 0 0 851.4478 781.5969
  A 9.32 7.24 92.2 0 0 843.8553 790.6321
  A 9.32 7.24 92.2 0 0 850.7322 800.2231
  Z"
/>
<path fill="#ffef77" d="
  M 879.9457 803.3171
  A 12.73 11.93 95.7 0 1 869.3390 789.4651
  A 12.73 11.93 95.7 0 1 882.4743 777.9829
  A 12.73 11.93 95.7 0 1 893.0810 791.8349
  A 12.73 11.93 95.7 0 1 879.9457 803.3171
  Z
  M 880.7178 800.2110
  A 9.45 7.28 92.5 0 0 888.4031 791.0875
  A 9.45 7.28 92.5 0 0 881.5422 781.3290
  A 9.45 7.28 92.5 0 0 873.8569 790.4525
  A 9.45 7.28 92.5 0 0 880.7178 800.2110
  Z"
/>
<rect fill="#ffef77" x="-2.26" y="-11.83" transform="translate(434.72,790.42) rotate(0.1)" width="4.52" height="23.66" rx="0.75"/>
<path fill="#ffef77" d="
  M 450.44 801.06
  C 446.32 798.55 445.37 793.60 445.73 788.97
  C 446.44 779.78 454.73 777.35 462.89 778.85
  Q 463.31 778.93 463.59 779.25
  Q 464.60 780.42 464.01 781.80
  A 0.74 0.73 20.1 0 1 463.12 782.21
  C 455.33 779.86 449.03 783.64 449.99 792.28
  C 450.84 799.91 456.71 800.04 462.84 799.47
  A 1.35 1.35 0.0 0 1 463.53 802.04
  Q 456.98 805.05 450.44 801.06
  Z"
/>
<path fill="#ffef77" d="
  M 530.22 801.89
  C 518.52 807.29 507.62 797.60 512.31 785.36
  C 516.78 773.71 534.22 776.94 532.17 791.02
  Q 532.10 791.47 531.65 791.47
  L 517.32 791.59
  A 2.01 2.00 -10.1 0 0 515.45 794.26
  C 517.95 801.28 523.82 799.99 529.58 799.47
  A 1.27 1.27 0.0 0 1 530.22 801.89
  Z
  M 516.66 788.88
  L 526.70 788.95
  A 1.34 1.34 0.0 0 0 528.05 787.62
  L 528.05 787.48
  A 5.98 5.88 -89.6 0 0 522.22 781.46
  L 521.26 781.46
  A 5.98 5.88 -89.6 0 0 515.33 787.40
  L 515.33 787.54
  A 1.34 1.34 0.0 0 0 516.66 788.88
  Z"
/>
<rect fill="#ffef77" x="-2.28" y="-11.85" transform="translate(683.28,790.40) rotate(0.1)" width="4.56" height="23.70" rx="0.49"/>
<rect fill="#ffef77" x="-2.28" y="-11.79" transform="translate(949.30,790.58) rotate(0.3)" width="4.56" height="23.58" rx="1.24"/>
</svg>
